<svg width="200" height="200" viewBox="0 0 200 200" fill="none" xmlns="http://www.w3.org/2000/svg">
<circle cx="100" cy="100" r="100" fill="url(#paint0_radial_192_44)"/>
<path d="M39.6846 127.046C35.8307 127.046 32.172 126.472 28.7083 125.324C25.2935 124.129 22.2446 122.43 19.5615 120.225C16.9272 117.975 14.8295 115.219 13.2684 111.958C11.7561 108.697 11 105 11 100.866C11 96.3194 11.7561 92.2776 13.2684 88.7411C14.8295 85.1587 16.9272 82.1273 19.5615 79.6472C22.2446 77.1211 25.2691 75.215 28.6352 73.929C32.05 72.643 35.5868 72 39.2455 72C42.4165 72 45.5142 72.3445 48.5388 73.0334C51.5633 73.7223 54.3196 74.8017 56.8075 76.2714C59.2955 77.6952 61.3444 79.5553 62.9542 81.8518C64.5641 84.1482 65.5641 86.904 65.9544 90.119C66.1983 91.9561 65.9544 93.6785 65.2227 95.286C64.5397 96.8476 63.4421 98.1106 61.9298 99.0751C60.4663 100.04 58.6613 100.522 56.5148 100.522H55.9294C53.783 100.522 51.9048 100.131 50.295 99.3507C48.7339 98.5699 47.5387 97.5595 46.7094 96.3194C45.8801 95.0793 45.4654 93.7933 45.4654 92.4614C45.4654 92.1858 45.6118 92.048 45.9045 92.048C46.1972 92.048 46.3435 92.1858 46.3435 92.4614C46.3435 93.6555 46.7094 94.8037 47.4411 95.906C48.2217 97.0083 49.3193 97.9269 50.734 98.6618C52.1975 99.3507 53.9293 99.6952 55.9294 99.6952H56.5148C58.4662 99.6952 60.1004 99.2588 61.4176 98.3862C62.7347 97.5135 63.7104 96.3653 64.3446 94.9415C65.0275 93.5177 65.2714 91.9561 65.0763 90.2568C64.686 87.1336 63.7104 84.4697 62.1493 82.2651C60.637 80.0605 58.6857 78.2693 56.2953 76.8914C53.9049 75.5136 51.2462 74.5031 48.3192 73.8601C45.3922 73.1712 42.3677 72.8267 39.2455 72.8267C35.6844 72.8267 32.2695 73.4697 29.001 74.7557C25.7326 75.9958 22.8056 77.833 20.22 80.2672C17.6345 82.6555 15.5856 85.595 14.0733 89.0856C12.6098 92.5303 11.8781 96.4572 11.8781 100.866C11.8781 104.908 12.6098 108.514 14.0733 111.683C15.5368 114.806 17.5614 117.447 20.1469 119.605C22.7324 121.764 25.6838 123.417 29.001 124.566C32.3671 125.668 35.9283 126.219 39.6846 126.219C44.4166 126.219 48.4168 125.622 51.6853 124.428C54.9538 123.188 57.5881 121.534 59.5882 119.468C61.6371 117.355 63.1494 114.99 64.125 112.372C64.2226 112.142 64.3689 112.027 64.5641 112.027C65.0031 112.027 65.1251 112.234 64.93 112.647C63.9543 115.357 62.3932 117.814 60.2468 120.019C58.1491 122.177 55.3928 123.9 51.978 125.186C48.6119 126.426 44.5141 127.046 39.6846 127.046Z" fill="#2571FF" stroke="#2571FF"/>
<path d="M82.2051 127.046C79.5555 127.046 77.2702 126.014 75.3492 123.951C73.4283 121.814 72.4678 119.272 72.4678 116.324V84.1587C72.4678 81.1375 73.4283 78.5583 75.3492 76.4214C77.2702 74.2107 79.5555 73.1053 82.2051 73.1053H86.9744C89.4916 73.1053 91.6444 74.0265 93.4329 75.8687C95.2876 77.7109 96.3475 80.069 96.6124 82.9429C97.606 79.8479 99.3945 77.2688 101.978 75.2055C104.561 73.0685 107.675 72 111.318 72C114.497 72 117.279 72.8843 119.664 74.6528C122.115 76.3477 124.036 78.632 125.427 81.5059C126.818 84.3798 127.514 87.6221 127.514 91.2329V116.435C127.514 119.382 126.553 121.888 124.632 123.951C122.777 126.014 120.492 127.046 117.776 127.046C117.313 127.046 117.081 126.825 117.081 126.383C117.081 125.941 117.313 125.719 117.776 125.719C120.161 125.719 122.181 124.835 123.837 123.067C125.493 121.224 126.321 119.014 126.321 116.435V91.2329C126.321 87.9169 125.692 84.8956 124.433 82.1691C123.175 79.4426 121.42 77.3056 119.167 75.7582C116.915 74.137 114.299 73.3264 111.318 73.3264C108.403 73.3264 105.886 74.0265 103.766 75.4266C101.647 76.753 99.9907 78.5215 98.7984 80.7322C97.606 82.9429 96.9105 85.3378 96.7118 87.9169C96.7118 88.359 96.5131 88.5801 96.1156 88.5801C95.7182 88.5801 95.5195 88.359 95.5195 87.9169V84.1587C95.5195 81.3585 94.6915 79.0373 93.0355 77.1951C91.3794 75.3529 89.3591 74.4317 86.9744 74.4317H82.2051C79.8205 74.4317 77.8001 75.4266 76.1441 77.4162C74.4881 79.3321 73.6601 81.5796 73.6601 84.1587V116.324C73.6601 118.903 74.4881 121.114 76.1441 122.956C77.8001 124.798 79.8205 125.719 82.2051 125.719H87.3719C89.7565 125.719 91.7438 124.798 93.3335 122.956C94.9895 121.114 95.8176 118.903 95.8176 116.324C95.8176 115.882 96.0163 115.661 96.4137 115.661C96.8112 115.661 97.0099 115.882 97.0099 116.324C97.0099 119.272 96.0825 121.814 94.2278 123.951C92.373 126.014 90.0878 127.046 87.3719 127.046H82.2051Z" fill="#FFF740" stroke="#FFF740"/>
<path d="M142.2 127.046C139.875 127.046 137.904 126.296 136.286 124.796C134.719 123.296 133.936 121.516 133.936 119.453V79.944C133.936 77.6007 134.669 75.7494 136.135 74.3902C137.651 73.0311 139.673 72.3515 142.2 72.3515H146.901C148.822 72.3515 150.414 72.7967 151.678 73.6872C152.992 74.5777 153.902 75.7728 154.407 77.2726C154.963 75.5385 155.949 74.2262 157.364 73.3357C158.83 72.4452 160.599 72 162.672 72H163.43C167.272 72 170.709 72.5624 173.742 73.6872C176.825 74.8121 179.529 76.4758 181.855 78.6786C184.129 80.7408 185.873 83.2716 187.086 86.2712C188.35 89.2238 188.982 92.8795 188.982 97.2381V100.542C188.982 105.604 188.35 109.705 187.086 112.845C185.822 115.938 184.053 118.516 181.779 120.578C179.504 122.64 176.724 124.234 173.438 125.359C170.203 126.483 166.033 127.046 160.928 127.046H142.2ZM134.846 119.453C134.846 121.328 135.553 122.922 136.969 124.234C138.434 125.546 140.178 126.202 142.2 126.202H160.928C165.882 126.202 169.951 125.663 173.135 124.585C176.32 123.507 178.999 121.961 181.172 119.945C183.396 117.93 185.09 115.446 186.252 112.494C187.465 109.494 188.072 105.51 188.072 100.542V97.2381C188.072 92.9263 187.465 89.3644 186.252 86.5524C185.09 83.6934 183.396 81.2563 181.172 79.241C178.898 77.132 176.294 75.5385 173.363 74.4605C170.481 73.3826 167.171 72.8436 163.43 72.8436H162.748C160.372 72.8436 158.451 73.4998 156.985 74.8121C155.57 76.0775 154.862 77.8584 154.862 80.1549C154.862 80.4361 154.711 80.5768 154.407 80.5768C154.104 80.5768 153.952 80.4361 153.952 80.1549C153.952 78.0928 153.346 76.429 152.133 75.1636C150.92 73.8513 149.176 73.1951 146.901 73.1951H142.2C139.875 73.1951 138.055 73.8044 136.741 75.023C135.477 76.1946 134.846 77.835 134.846 79.944V119.453Z" fill="#FF5E5E" stroke="#FF5E5E"/>
<defs>
<radialGradient id="paint0_radial_192_44" cx="0" cy="0" r="1" gradientUnits="userSpaceOnUse" gradientTransform="translate(100 100) rotate(90) scale(100)">
<stop stop-color="#44FF92"/>
<stop offset="1" stop-color="white" stop-opacity="0"/>
</radialGradient>
</defs>
</svg>
