<svg width="444" height="209" viewBox="0 0 444 209" fill="none" xmlns="http://www.w3.org/2000/svg">
<path d="M68.7434 131C59.6419 131 51.0011 129.644 42.8212 126.932C34.7565 124.112 27.5559 120.099 21.2193 114.892C14.998 109.577 10.044 103.069 6.35726 95.368C2.78575 87.6667 1 78.9349 1 69.1727C1 58.4343 2.78575 48.889 6.35726 40.5369C10.044 32.0763 14.998 24.9174 21.2193 19.0601C27.5559 13.0943 34.6989 8.59282 42.6484 5.55569C50.7131 2.51856 59.0658 1 67.7066 1C75.1952 1 82.511 1.81352 89.6541 3.44055C96.7971 5.06758 103.306 7.6166 109.182 11.0876C115.058 14.4501 119.897 18.8431 123.699 24.2666C127.501 29.69 129.862 36.1982 130.784 43.791C131.36 48.1297 130.784 52.1973 129.056 55.9937C127.443 59.6817 124.851 62.6646 121.279 64.9424C117.823 67.2203 113.56 68.3592 108.491 68.3592H107.108C102.039 68.3592 97.6035 67.4372 93.8016 65.5932C90.1149 63.7493 87.2922 61.363 85.3337 58.4343C83.3751 55.5056 82.3958 52.4685 82.3958 49.3229C82.3958 48.6721 82.7415 48.3467 83.4327 48.3467C84.124 48.3467 84.4696 48.6721 84.4696 49.3229C84.4696 52.1431 85.3337 54.8548 87.0618 57.4581C88.9052 60.0613 91.4974 62.2307 94.8385 63.9662C98.2948 65.5932 102.385 66.4068 107.108 66.4068H108.491C113.099 66.4068 116.959 65.3763 120.069 63.3154C123.18 61.2545 125.484 58.5428 126.982 55.1802C128.595 51.8177 129.171 48.1297 128.71 44.1164C127.789 36.7405 125.484 30.4493 121.798 25.2428C118.226 20.0363 113.618 15.806 107.972 12.5519C102.327 9.29787 96.0482 6.91156 89.1356 5.39299C82.223 3.76596 75.08 2.95244 67.7066 2.95244C59.2962 2.95244 51.2315 4.47101 43.5125 7.50814C35.7934 10.4368 28.8808 14.7755 22.7747 20.5244C16.6686 26.1648 11.8297 33.1068 8.25823 41.3504C4.80193 49.4856 3.07378 58.7597 3.07378 69.1727C3.07378 78.718 4.80193 87.2328 8.25823 94.7171C11.7145 102.093 16.4957 108.33 22.6019 113.428C28.708 118.526 35.6782 122.431 43.5125 125.143C51.462 127.746 59.8723 129.048 68.7434 129.048C79.9188 129.048 89.366 127.637 97.0851 124.817C104.804 121.889 111.025 117.984 115.749 113.103C120.588 108.113 124.159 102.527 126.464 96.3442C126.694 95.8018 127.04 95.5307 127.501 95.5307C128.537 95.5307 128.825 96.0188 128.365 96.995C126.06 103.395 122.374 109.198 117.304 114.404C112.35 119.502 105.841 123.57 97.7764 126.607C89.8269 129.536 80.1492 131 68.7434 131Z" fill="#007AFF" stroke="#007AFF"/>
<path d="M179.996 131C173.739 131 168.342 128.564 163.805 123.691C159.268 118.644 157 112.64 157 105.679V29.7149C157 22.5797 159.268 16.4886 163.805 11.4418C168.342 6.22088 173.739 3.61044 179.996 3.61044H191.26C197.205 3.61044 202.289 5.78581 206.513 10.1365C210.893 14.4873 213.396 20.0562 214.022 26.8434C216.368 19.5341 220.592 13.4431 226.693 8.57029C232.794 3.52343 240.147 1 248.751 1C256.26 1 262.83 3.08835 268.462 7.26506C274.25 11.2677 278.787 16.6626 282.072 23.4498C285.357 30.2369 287 37.8942 287 46.4217V105.94C287 112.901 284.732 118.818 280.195 123.691C275.815 128.564 270.418 131 264.004 131C262.909 131 262.361 130.478 262.361 129.434C262.361 128.39 262.909 127.867 264.004 127.867C269.635 127.867 274.407 125.779 278.318 121.602C282.229 117.252 284.184 112.031 284.184 105.94V46.4217C284.184 38.5904 282.698 31.4552 279.726 25.0161C276.753 18.577 272.608 13.5301 267.289 9.8755C261.97 6.04685 255.791 4.13253 248.751 4.13253C241.868 4.13253 235.923 5.78581 230.917 9.09237C225.911 12.2249 222 16.4016 219.184 21.6225C216.368 26.8434 214.726 32.4993 214.256 38.5904C214.256 39.6345 213.787 40.1566 212.848 40.1566C211.91 40.1566 211.44 39.6345 211.44 38.5904V29.7149C211.44 23.1017 209.485 17.6198 205.574 13.2691C201.663 8.91834 196.892 6.74298 191.26 6.74298H179.996C174.365 6.74298 169.593 9.09237 165.682 13.7912C161.771 18.3159 159.816 23.6238 159.816 29.7149V105.679C159.816 111.77 161.771 116.991 165.682 121.341C169.593 125.692 174.365 127.867 179.996 127.867H192.199C197.83 127.867 202.523 125.692 206.278 121.341C210.189 116.991 212.144 111.77 212.144 105.679C212.144 104.635 212.614 104.112 213.552 104.112C214.491 104.112 214.96 104.635 214.96 105.679C214.96 112.64 212.77 118.644 208.39 123.691C204.01 128.564 198.613 131 192.199 131H179.996Z" fill="#FFF740" stroke="#FFF740"/>
<path d="M332.518 131C327.027 131 322.371 129.229 318.551 125.687C314.85 122.145 313 117.939 313 113.069V19.7612C313 14.2269 314.731 9.85484 318.193 6.64496C321.774 3.43508 326.549 1.83014 332.518 1.83014H343.62C348.156 1.83014 351.916 2.88165 354.901 4.98467C358.005 7.0877 360.153 9.91018 361.347 13.4521C362.66 9.35675 364.988 6.25755 368.331 4.15453C371.792 2.05151 375.971 1 380.865 1H382.656C391.728 1 399.846 2.32822 407.008 4.98467C414.29 7.64113 420.677 11.5705 426.168 16.7727C431.54 21.6428 435.658 27.6198 438.523 34.7037C441.508 41.6769 443 50.3103 443 60.6041V68.4074C443 80.3614 441.508 90.0464 438.523 97.4623C435.539 104.768 431.361 110.855 425.989 115.725C420.617 120.596 414.051 124.359 406.292 127.015C398.652 129.672 388.803 131 376.747 131H332.518ZM315.149 113.069C315.149 117.496 316.82 121.26 320.163 124.359C323.624 127.458 327.743 129.008 332.518 129.008H376.747C388.445 129.008 398.055 127.735 405.576 125.189C413.096 122.643 419.423 118.991 424.556 114.231C429.809 109.472 433.808 103.605 436.554 96.6322C439.419 89.5483 440.851 80.1401 440.851 68.4074V60.6041C440.851 50.421 439.419 42.0089 436.554 35.3678C433.808 28.616 429.809 22.8604 424.556 18.1009C419.185 13.1201 413.037 9.35675 406.113 6.81099C399.309 4.26522 391.489 2.99234 382.656 2.99234H381.044C375.433 2.99234 370.897 4.54194 367.435 7.64113C364.093 10.6296 362.421 14.8357 362.421 20.2593C362.421 20.9234 362.063 21.2554 361.347 21.2554C360.631 21.2554 360.273 20.9234 360.273 20.2593C360.273 15.3891 358.84 11.4598 355.975 8.47127C353.11 5.37208 348.992 3.82248 343.62 3.82248H332.518C327.027 3.82248 322.729 5.26139 319.625 8.13921C316.641 10.9063 315.149 14.7803 315.149 19.7612V113.069Z" fill="#FF5E5E" stroke="#FF5E5E"/>
<path d="M313 198.25V175.75H328V179.5H316.75V194.5H328V198.25H313ZM331.75 202V175.75H335.5V187H339.25V190.75H335.5V202H331.75ZM358 190.75V175.75H361.75V179.5H369.25V175.75H373V190.75H358ZM361.75 194.5H365.5V198.25H380.5V202H361.75V194.5ZM361.75 183.25V187H369.25V183.25H361.75ZM376.75 194.5V175.75H380.5V194.5H376.75ZM403 198.25V194.5H406.75V198.25H403ZM403 187V183.25H421.75V175.75H425.5V202H421.75V198.25H418V194.5H421.75V187H414.25V190.75H410.5V187H403ZM410.5 194.5H406.75V190.75H410.5V194.5ZM418 194.5H414.25V190.75H418V194.5ZM418 175.75V179.5H406.75V175.75H418Z" fill="#FF5E5E"/>
<path d="M186 198.25V175.75H189.75V194.5H197.25V198.25H186ZM193.5 187V183.25H201V175.75H204.75V202H201V187H193.5ZM208.5 202V175.75H212.25V202H208.5ZM231 183.25V179.5H234.75V183.25H231ZM234.75 202V190.75H253.5V202H234.75ZM234.75 183.25H242.25V187H234.75V183.25ZM234.75 179.5V175.75H242.25V179.5H234.75ZM238.5 194.5V198.25H249.75V194.5H238.5ZM242.25 183.25V179.5H246V183.25H242.25ZM249.75 187V175.75H253.5V187H249.75Z" fill="#FFF740"/>
<path d="M56 198.25V194.5H67.25V187H59.75V183.25H74.75V179.5H59.75V175.75H78.5V190.75H74.75V187H71V194.5H82.25V198.25H56ZM101 198.25V194.5H127.25V198.25H101ZM104.75 190.75V175.75H123.5V179.5H108.5V187H123.5V190.75H104.75Z" fill="#2571FF"/>
</svg>
