<svg width="196" height="62" viewBox="0 0 196 62" fill="none" xmlns="http://www.w3.org/2000/svg">
<path d="M32.2662 60.9999C28.0655 60.9999 24.0774 60.3742 20.3021 59.1226C16.5799 57.821 13.2566 55.9687 10.332 53.5656C7.46062 51.1126 5.17414 48.1088 3.47258 44.5544C1.82419 40.9999 1 36.9699 1 32.4643C1 27.5081 1.82419 23.1026 3.47258 19.2478C5.17414 15.3429 7.46062 12.0387 10.332 9.33536C13.2566 6.58192 16.5533 4.50432 20.2223 3.10257C23.9445 1.70081 27.7996 0.999939 31.7876 0.999939C35.2439 0.999939 38.6205 1.37541 41.9173 2.12635C45.214 2.87728 48.2183 4.05375 50.9302 5.65576C53.6421 7.2077 55.8754 9.23523 57.6301 11.7384C59.3848 14.2415 60.4749 17.2452 60.9003 20.7496C61.1662 22.7521 60.9003 24.6295 60.1027 26.3817C59.3583 28.0838 58.1618 29.4605 56.5135 30.5118C54.9182 31.5631 52.9508 32.0888 50.6112 32.0888H49.9731C47.6334 32.0888 45.5862 31.6633 43.8315 30.8122C42.1299 29.9611 40.8272 28.8598 39.9232 27.5081C39.0193 26.1564 38.5673 24.7546 38.5673 23.3028C38.5673 23.0024 38.7268 22.8523 39.0459 22.8523C39.3649 22.8523 39.5244 23.0024 39.5244 23.3028C39.5244 24.6044 39.9232 25.856 40.7208 27.0575C41.5716 28.259 42.768 29.2603 44.3101 30.0613C45.9053 30.8122 47.793 31.1877 49.9731 31.1877H50.6112C52.7381 31.1877 54.5194 30.7121 55.9551 29.7609C57.3908 28.8097 58.4543 27.5581 59.1456 26.0062C59.89 24.4543 60.1559 22.7521 59.9432 20.8998C59.5178 17.4956 58.4543 14.5919 56.7527 12.1889C55.1044 9.78592 52.9774 7.83348 50.3719 6.3316C47.7664 4.82973 44.8684 3.72835 41.678 3.02747C38.4875 2.27654 35.1908 1.90107 31.7876 1.90107C27.906 1.90107 24.1838 2.60194 20.6211 4.0037C17.0585 5.35538 13.8681 7.35788 11.0499 10.0112C8.23164 12.6145 5.99834 15.8185 4.34995 19.6232C2.75474 23.3779 1.95713 27.6583 1.95713 32.4643C1.95713 36.8698 2.75474 40.7997 4.34995 44.254C5.94517 47.6583 8.15188 50.5369 10.9701 52.8898C13.7883 55.2427 17.0053 57.045 20.6211 58.2966C24.2901 59.4981 28.1718 60.0988 32.2662 60.0988C37.4241 60.0988 41.7843 59.448 45.347 58.1464C48.9096 56.7947 51.781 54.9924 53.9611 52.7396C56.1944 50.4367 57.8428 47.8585 58.9063 45.0049C59.0126 44.7546 59.1722 44.6295 59.3848 44.6295C59.8634 44.6295 59.9963 44.8548 59.7836 45.3053C58.7202 48.259 57.0186 50.9374 54.679 53.3404C52.3925 55.6933 49.3882 57.5707 45.666 58.9724C41.997 60.3241 37.5304 60.9999 32.2662 60.9999Z" fill="#007AFF" stroke="#007AFF"/>
<path d="M78.6137 60.9999C75.7256 60.9999 73.2347 59.8755 71.1408 57.6265C69.0469 55.2971 68 52.526 68 49.3132V14.253C68 10.9598 69.0469 8.14853 71.1408 5.81921C73.2347 3.40958 75.7256 2.20476 78.6137 2.20476H83.8123C86.556 2.20476 88.9025 3.20877 90.852 5.21681C92.8736 7.22484 94.0289 9.79512 94.3177 12.9277C95.4007 9.55416 97.3502 6.74291 100.166 4.49392C102.982 2.1646 106.375 0.999939 110.347 0.999939C113.812 0.999939 116.845 1.96379 119.444 3.8915C122.116 5.73889 124.209 8.22885 125.726 11.3614C127.242 14.4939 128 18.0281 128 21.9638V49.4337C128 52.6465 126.953 55.3775 124.859 57.6265C122.838 59.8755 120.347 60.9999 117.386 60.9999C116.881 60.9999 116.628 60.759 116.628 60.2771C116.628 59.7951 116.881 59.5542 117.386 59.5542C119.986 59.5542 122.188 58.5903 123.993 56.6626C125.798 54.6546 126.7 52.2449 126.7 49.4337V21.9638C126.7 18.3493 126.014 15.0562 124.643 12.0843C123.271 9.11239 121.357 6.78307 118.903 5.09633C116.448 3.32926 113.596 2.44572 110.347 2.44572C107.17 2.44572 104.426 3.20877 102.116 4.73488C99.8051 6.18066 98 8.10837 96.7004 10.518C95.4007 12.9276 94.6426 15.5381 94.426 18.3493C94.426 18.8313 94.2094 19.0722 93.7762 19.0722C93.343 19.0722 93.1264 18.8313 93.1264 18.3493V14.253C93.1264 11.2007 92.2238 8.67062 90.4188 6.66259C88.6137 4.65456 86.4116 3.65054 83.8123 3.65054H78.6137C76.0144 3.65054 73.8123 4.73488 72.0072 6.90355C70.2022 8.99191 69.2996 11.4417 69.2996 14.253V49.3132C69.2996 52.1244 70.2022 54.5341 72.0072 56.5421C73.8123 58.5501 76.0144 59.5542 78.6137 59.5542H84.2455C86.8448 59.5542 89.0108 58.5501 90.7437 56.5421C92.5487 54.5341 93.4513 52.1244 93.4513 49.3132C93.4513 48.8313 93.6679 48.5903 94.1011 48.5903C94.5343 48.5903 94.7509 48.8313 94.7509 49.3132C94.7509 52.526 93.7401 55.2971 91.7184 57.6265C89.6968 59.8755 87.2058 60.9999 84.2455 60.9999H78.6137Z" fill="#FFFBA6" stroke="#FFFBA6"/>
<path d="M144.008 60.9999C141.474 60.9999 139.325 60.1826 137.562 58.5478C135.854 56.9131 135 54.9718 135 52.7241V9.65894C135 7.10467 135.799 5.08679 137.397 3.60531C139.05 2.12382 141.253 1.38308 144.008 1.38308H149.132C151.226 1.38308 152.961 1.86839 154.339 2.83902C155.771 3.80965 156.763 5.11233 157.314 6.74707C157.92 4.8569 158.994 3.4265 160.537 2.45588C162.135 1.48525 164.063 0.999939 166.322 0.999939H167.149C171.336 0.999939 175.083 1.61297 178.388 2.83902C181.749 4.06507 184.697 5.87861 187.231 8.27963C189.711 10.5274 191.612 13.286 192.934 16.5555C194.311 19.7739 195 23.7586 195 28.5095V32.111C195 37.6283 194.311 42.0983 192.934 45.521C191.556 48.8927 189.628 51.7024 187.149 53.9501C184.669 56.1979 181.639 57.9348 178.058 59.1609C174.532 60.3869 169.986 60.9999 164.421 60.9999H144.008ZM135.992 52.7241C135.992 54.7675 136.763 56.5044 138.306 57.9348C139.904 59.3652 141.804 60.0804 144.008 60.0804H164.421C169.821 60.0804 174.256 59.4929 177.727 58.3179C181.198 57.143 184.118 55.4571 186.488 53.2605C188.912 51.0638 190.758 48.3563 192.025 45.1379C193.347 41.8684 194.008 37.5261 194.008 32.111V28.5095C194.008 23.8096 193.347 19.9271 192.025 16.862C190.758 13.7458 188.912 11.0893 186.488 8.89266C184.008 6.59381 181.171 4.8569 177.975 3.68193C174.835 2.50697 171.226 1.91948 167.149 1.91948H166.405C163.815 1.91948 161.722 2.63468 160.124 4.06507C158.581 5.44439 157.81 7.38564 157.81 9.88883C157.81 10.1953 157.645 10.3486 157.314 10.3486C156.983 10.3486 156.818 10.1953 156.818 9.88883C156.818 7.64106 156.157 5.82753 154.835 4.44822C153.512 3.01782 151.612 2.30262 149.132 2.30262H144.008C141.474 2.30262 139.49 2.96674 138.058 4.29496C136.68 5.5721 135.992 7.36009 135.992 9.65894V52.7241Z" fill="#FF5E5E" stroke="#FF5E5E"/>
</svg>
